<svg width="280" height="280" xmlns="http://www.w3.org/2000/svg">
  <!-- Background -->
  <rect width="280" height="280" fill="#28A745" rx="40" ry="40"/>

  <!-- Box Outline -->
  <line x1="40" y1="120" x2="40" y2="270" stroke="#FFF" stroke-width="8" stroke-linecap="round"/>
  <line x1="40" y1="270" x2="240" y2="270" stroke="#FFF" stroke-width="8" stroke-linecap="round"/>
  <line x1="240" y1="270" x2="240" y2="180" stroke="#FFF" stroke-width="8" stroke-linecap="round"/>
  <line x1="240" y1="150" x2="240" y2="120" stroke="#FFF" stroke-width="8" stroke-linecap="round"/>

  <!-- Box Lid -->
  <!-- Box Lid -->
  <!-- <rect x="30" y="90" width="220" height="30"  rx="1" ry="1"
        stroke="#FFF" stroke-width="8" fill="none" /> -->
  <line x1="30" y1="90" x2="70" y2="90" stroke="#FFF" stroke-width="8" stroke-linecap="round" />
  <line x1="30" y1="90" x2="30" y2="120" stroke="#FFF" stroke-width="8" stroke-linecap="round" />
  <line x1="30" y1="120" x2="60" y2="120" stroke="#FFF" stroke-width="8" stroke-linecap="round" />
  <line x1="80" y1="120" x2="200" y2="120" stroke="#FFF" stroke-width="8" stroke-linecap="round" />
  <line x1="220" y1="120" x2="250" y2="120" stroke="#FFF" stroke-width="8" stroke-linecap="round" />
  <line x1="250" y1="120" x2="250" y2="90" stroke="#FFF" stroke-width="8" stroke-linecap="round" />
  <line x1="250" y1="90" x2="210" y2="90" stroke="#FFF" stroke-width="8" stroke-linecap="round" />
  <line x1="208" y1="89" x2="217" y2="95" stroke="#FFF" stroke-width="7" stroke-linecap="round" />

  <!-- Box Content Lines -->
  <line x1="70" y1="150" x2="210" y2="150" 
        stroke="#FFF" stroke-width="8" stroke-linecap="round"/>
  <line x1="70" y1="180" x2="100" y2="180" 
        stroke="#FFF" stroke-width="8" stroke-linecap="round"/>
  <line x1="120" y1="180" x2="240" y2="180" 
        stroke="#FFF" stroke-width="8" stroke-linecap="round"/>
  <line x1="70" y1="210" x2="210" y2="210" 
        stroke="#FFF" stroke-width="8" stroke-linecap="round"/>
  <line x1="70" y1="240" x2="210" y2="240" 
        stroke="#FFF" stroke-width="8" stroke-linecap="round"/>

  <svg fill="#ffffff" height="200" width="200" version="1.1" x="40" y="-30" id="Layer_1" xmlns="http://www.w3.org/2000/svg" xmlns:xlink="http://www.w3.org/1999/xlink" viewBox="0 0 512.001 512.001" xml:space="preserve"><g id="SVGRepo_bgCarrier" stroke-width="0"></g><g id="SVGRepo_tracerCarrier" stroke-linecap="round" stroke-linejoin="round"></g><g id="SVGRepo_iconCarrier"> <g> <g> <path d="M510.198,359.201c-13.14-15.856-32.141-32.352-53.504-46.448c-3.614-2.384-8.474-1.388-10.857,2.225 c-2.383,3.613-1.388,8.473,2.225,10.858c15.548,10.259,29.706,21.794,40.957,33.294l-34.409,6.606 c-3.393,0.651-5.959,3.447-6.317,6.884l-3.143,30.157c-9.724-9.382-25.114-23.374-45.052-38.743 c-28.019-21.595-69.908-49.419-118.653-67.461c2.655-1.286,5.352-2.779,7.996-4.505c0.32-0.071,0.641-0.143,0.964-0.214 c15.98,4.311,78.548,22.643,127.195,57.197c1.376,0.979,2.961,1.449,4.531,1.449c2.452,0,4.868-1.148,6.396-3.3 c2.506-3.529,1.677-8.421-1.851-10.927c-29.723-21.113-63.727-36.25-90.368-46.127c4.029-0.456,8.084-1.075,12.15-1.864 c21.776,1.441,46.333,8.716,71.097,21.088c1.124,0.562,2.319,0.829,3.496,0.829c2.876,0,5.643-1.589,7.016-4.335 c1.935-3.872,0.365-8.58-3.508-10.514c-14.979-7.484-29.959-13.234-44.448-17.117c29.251-11.745,58.078-31.043,82.315-55.544 c32.238-32.585,49.909-67.942,47.269-94.583c-1.629-16.429-12.62-43.99-67.95-43.99c-42.392,0-77.932,15.913-105.633,47.298 c-17.237,19.528-31.106,44.646-41.352,74.792c-14.549-12.256-36.251-11.401-40.761-11.069 c-4.513-0.332-26.207-1.187-40.757,11.065c-8.462-24.848-19.425-46.376-32.703-64.129c-2.591-3.466-7.503-4.173-10.969-1.582 c-3.466,2.591-4.174,7.503-1.582,10.969c14.376,19.219,25.886,43.406,34.248,71.891c-1.504,5.834-1.646,12.371-0.97,18.982 c-2.465-3.775-5.192-7.742-8.22-11.873c-19.09-26.04-54.077-63.758-112.343-95.564c-3.802-2.075-8.559-0.675-10.634,3.123 c-2.073,3.799-0.675,8.56,3.123,10.634c55.386,30.235,88.62,65.87,106.746,90.441c11.121,15.073,18.074,27.938,22.029,36.306 l-12.197,0.004c-8.512,0-17.337-0.907-26.228-2.697c-0.059-0.013-0.117-0.022-0.176-0.033 c-36.727-7.386-75.589-29.616-106.645-61.006C30.156,182.799,13.749,151.372,15.9,129.65c2.446-24.682,29.82-29.862,52.352-29.862 c30.879,0,57.748,9.496,79.865,28.225c3.303,2.797,8.248,2.385,11.045-0.916c2.797-3.303,2.387-8.248-0.916-11.045 c-25.024-21.193-55.303-31.937-89.993-31.937c-55.329,0-66.321,27.561-67.947,43.991c-2.638,26.642,15.034,62.001,47.273,94.585 c24.912,25.18,54.669,44.872,84.752,56.509c-20.172,5.789-41.133,14.506-61.187,25.596c-28.892,15.977-53.52,35.298-69.343,54.407 c-1.766,2.133-2.276,5.039-1.34,7.645c0.936,2.607,3.179,4.527,5.898,5.048l42.362,8.132l4.255,40.833 c0.321,3.067,2.408,5.659,5.334,6.627c0.807,0.268,1.636,0.397,2.46,0.397c2.158,0,4.265-0.892,5.774-2.537 c0.822-0.893,82.818-89.184,189.455-120.745c106.637,31.561,188.633,119.852,189.454,120.743c1.51,1.646,3.616,2.54,5.776,2.54 c0.821,0,1.651-0.13,2.459-0.396c2.928-0.968,5.016-3.561,5.335-6.629l4.255-40.833l42.362-8.132 c2.721-0.522,4.962-2.442,5.9-5.049C512.476,364.24,511.965,361.333,510.198,359.201z M433.353,138.019 c-2.074-3.799-6.835-5.2-10.634-3.123c-58.267,31.807-93.253,69.524-112.343,95.564c-0.452,0.616-0.889,1.226-1.328,1.835 c-0.148-3.098-0.555-6.1-1.285-8.937c16.673-56.888,53.765-123.57,135.984-123.57c22.533,0,49.907,5.181,52.353,29.861 c2.152,21.72-14.253,53.147-42.814,82.015c-31.037,31.37-69.866,53.593-106.573,60.996c-0.086,0.015-0.17,0.029-0.255,0.047 h-0.001c-0.017,0.003-0.032,0.006-0.049,0.009c-8.874,1.784-17.682,2.687-26.178,2.687h-18.775 c3.955-8.369,10.908-21.235,22.03-36.31c18.127-24.571,51.36-60.206,106.746-90.441 C434.029,146.58,435.427,141.818,433.353,138.019z M111.902,364.031c-19.938,15.369-35.329,29.362-45.053,38.744l-3.143-30.157 c-0.358-3.437-2.925-6.233-6.318-6.884l-34.29-6.584c30.9-30.728,87.659-63.255,140.74-70.814 c3.965,0.762,7.921,1.364,11.852,1.808c-26.641,9.877-60.645,25.015-90.368,46.127c-3.529,2.506-4.357,7.398-1.851,10.927 c1.528,2.152,3.942,3.3,6.396,3.3c1.569,0,3.155-0.47,4.531-1.449c49.047-34.838,112.412-53.227,127.647-57.317 c2.808,1.87,5.682,3.47,8.51,4.839C181.81,314.612,139.921,342.436,111.902,364.031z M256,248.164 c-4.329,0-7.837,3.508-7.837,7.837v30.627c-5.272-1.562-12.112-4.203-18.31-8.537c-6.745-14.784-14.447-39.633-10.094-52.12 c0.007-0.021,0.017-0.042,0.024-0.063c0.286-0.812,0.623-1.573,1.016-2.273c8.518-15.148,34.169-12.867,34.408-12.84 c0.525,0.053,1.057,0.053,1.582,0c0.26-0.028,25.958-2.192,34.407,12.833c6.431,11.454-1.854,38.684-9.051,54.459 c-6.161,4.303-13.02,6.946-18.31,8.518V256C263.837,251.671,260.329,248.164,256,248.164z"></path> </g> </g> </g></svg>
</svg>
