<svg xmlns="http://www.w3.org/2000/svg" version="1.1" xmlns:xlink="http://www.w3.org/1999/xlink" width="512" height="512" x="0" y="0" viewBox="0 0 24 24" style="enable-background:new 0 0 512 512">
  <path d="M14.824 11H13V9.175a1 1 0 1 0-2 0V11H9.176a1 1 0 1 0 0 2H11v1.825a1 1 0 1 0 2 0V13h1.824a1 1 0 1 0 0-2Z" fill="#FFF"/>
  <path d="M11.994 1C4.929 1.044 1 5.011 1 12.019 1 18.91 4.933 22.959 12.006 23c7.162-.042 10.861-3.737 10.994-11.017C22.878 4.946 18.974 1.045 11.994 1Zm.012 20C5.98 20.965 3.118 18.105 3 12c.113-6.019 3.059-8.963 8.994-9 5.874.038 8.904 3.072 9.006 8.981-.112 6.117-2.974 8.983-8.994 9.019Z" fill="#FFF"/>
</svg>